HIERARCHY
ROOT Hips
{
	OFFSET 0.000000 0.000000 0.000000
	CHANNELS 6 Xposition Yposition Zposition Xrotation Yrotation Zrotation
	JOINT LeftUpLeg_virtual
	{
		OFFSET 0.000000 0.000000 0.000000
		CHANNELS 3 Xrotation Yrotation Zrotation
		JOINT LeftUpLeg
		{
			OFFSET 11.394100 -6.187798 -0.413800
			CHANNELS 3 Xrotation Yrotation Zrotation
			JOINT LeftLeg
			{
				OFFSET 0.430247 -32.302673 3.732800
				CHANNELS 3 Xrotation Yrotation Zrotation
				JOINT LeftFoot
				{
					OFFSET -0.430247 -48.264931 -6.423300
					CHANNELS 3 Xrotation Yrotation Zrotation
					JOINT LeftToeBase
					{
						OFFSET 4.230900 -16.068199 23.438400
						CHANNELS 3 Xrotation Yrotation Zrotation
						JOINT LeftToe_End
						{
							OFFSET 4.510700 0.695400 19.974600
							CHANNELS 3 Xrotation Yrotation Zrotation
							End Site
							{
								OFFSET 0 0 0
							}
						}
					}
				}
			}
		}
	}
	JOINT RightUpLeg_virtual
	{
		OFFSET 0.000000 0.000000 0.000000
		CHANNELS 3 Xrotation Yrotation Zrotation
		JOINT RightUpLeg
		{
			OFFSET -11.333700 -6.187798 -0.413800
			CHANNELS 3 Xrotation Yrotation Zrotation
			JOINT RightLeg
			{
				OFFSET -0.430392 -32.302628 3.733000
				CHANNELS 3 Xrotation Yrotation Zrotation
				JOINT RightFoot
				{
					OFFSET 0.430392 -48.264973 -6.423500
					CHANNELS 3 Xrotation Yrotation Zrotation
					JOINT RightToeBase
					{
						OFFSET -4.230900 -16.068199 23.438400
						CHANNELS 3 Xrotation Yrotation Zrotation
						JOINT RightToe_End
						{
							OFFSET -4.510700 0.695400 19.974600
							CHANNELS 3 Xrotation Yrotation Zrotation
							End Site
							{
								OFFSET 0 0 0
							}
						}
					}
				}
			}
		}
	}
	JOINT Spine_virtual
	{
		OFFSET 0.000000 0.000000 0.000000
		CHANNELS 3 Xrotation Yrotation Zrotation
		JOINT Spine
		{
			OFFSET -0.002400 12.777504 0.315300
			CHANNELS 3 Xrotation Yrotation Zrotation
			JOINT Spine1
			{
				OFFSET -0.002067 5.816869 0.032633
				CHANNELS 3 Xrotation Yrotation Zrotation
				JOINT Spine1_split
				{
					OFFSET -0.002067 5.816869 0.032633
					CHANNELS 3 Xrotation Yrotation Zrotation
					JOINT Spine2
					{
						OFFSET -0.002067 5.816869 0.032633
						CHANNELS 3 Xrotation Yrotation Zrotation
						JOINT Neck_virtual
						{
							OFFSET 0.000000 0.000000 0.000000
							CHANNELS 3 Xrotation Yrotation Zrotation
							JOINT Neck
							{
								OFFSET -0.003700 21.199493 -0.826900
								CHANNELS 3 Xrotation Yrotation Zrotation
								JOINT Head
								{
									OFFSET 0.000000 20.442200 4.834800
									CHANNELS 3 Xrotation Yrotation Zrotation
									JOINT HeadTop_End
									{
										OFFSET 0.000000 34.668396 4.968400
										CHANNELS 3 Xrotation Yrotation Zrotation
										End Site
										{
											OFFSET 0 0 0
										}
									}
								}
							}
						}
						JOINT LeftShoulder_virtual
						{
							OFFSET 0.000000 0.000000 0.000000
							CHANNELS 3 Xrotation Yrotation Zrotation
							JOINT LeftShoulder
							{
								OFFSET 3.288150 8.794197 -1.372250
								CHANNELS 3 Xrotation Yrotation Zrotation
								JOINT LeftShoulder_split
								{
									OFFSET 3.288150 8.794197 -1.372250
									CHANNELS 3 Xrotation Yrotation Zrotation
									JOINT LeftArm
									{
										OFFSET 11.953299 -2.279007 -0.146200
										CHANNELS 3 Xrotation Yrotation Zrotation
										JOINT LeftForeArm
										{
											OFFSET 18.448900 0.000000 0.000000
											CHANNELS 3 Xrotation Yrotation Zrotation
											JOINT LeftHand
											{
												OFFSET 29.527798 0.000000 0.000000
												CHANNELS 3 Xrotation Yrotation Zrotation
												End Site
												{
													OFFSET 0 0 0
												}
											}
										}
									}
								}
							}
						}
						JOINT RightShoulder_virtual
						{
							OFFSET 0.000000 0.000000 0.000000
							CHANNELS 3 Xrotation Yrotation Zrotation
							JOINT RightShoulder
							{
								OFFSET -3.249400 8.794197 -1.372250
								CHANNELS 3 Xrotation Yrotation Zrotation
								JOINT RightShoulder_split
								{
									OFFSET -3.249400 8.794197 -1.372250
									CHANNELS 3 Xrotation Yrotation Zrotation
									JOINT RightArm
									{
										OFFSET -11.953299 -2.279007 -0.146200
										CHANNELS 3 Xrotation Yrotation Zrotation
										JOINT RightForeArm
										{
											OFFSET -18.448900 0.000000 0.000000
											CHANNELS 3 Xrotation Yrotation Zrotation
											JOINT RightHand
											{
												OFFSET -29.527802 0.000000 0.000000
												CHANNELS 3 Xrotation Yrotation Zrotation
												End Site
												{
													OFFSET 0 0 0
												}
											}
										}
									}
								}
							}
						}
					}
				}
			}
		}
	}
}
MOTION
Frames: 8
Frame Time: 0.03333333
3.166503 94.470055 -15.566921 0.000000 0.000000 0.000000 26.977528 -75.420288 27.521549 -30.260303 41.182902 33.091413 21.137021 -15.679182 3.068152 -0.474221 12.202844 -21.553540 0.412091 -2.886967 -8.492822 0.000000 0.000000 0.000000 23.285898 -74.054455 23.918844 -40.379590 4.223850 -17.555365 16.977099 9.880490 0.603248 11.580517 7.798247 29.491435 9.215324 0.699065 -23.760710 0.000000 0.000000 0.000000 10.319922 -68.174925 13.565247 5.000487 0.670002 -6.739941 6.136034 -2.741681 -0.661000 0.120552 -0.103411 -0.015156 0.000000 0.000000 0.000000 4.939342 0.073186 0.018497 -10.746572 11.745655 -1.630188 -40.373894 56.696786 4.895534 0.000000 0.000000 0.000000 6.415413 -2.660068 -0.943852 7.526716 0.285228 12.074939 -0.498268 -6.544338 2.462942 -38.834437 0.348208 11.464839 15.589132 -11.633959 8.094415 0.000000 0.000000 0.000000 6.382992 -1.842354 0.160102 -3.498167 13.520680 -15.456228 4.878190 -2.069894 14.433742 -59.504191 44.941125 45.059963 -174.141069 49.940769 177.258408 0.000000 0.000000 0.000000 
3.180912 94.472038 -15.547134 0.000000 0.000000 0.000000 26.886169 -75.412843 27.429160 -30.261051 41.167804 33.073275 21.145282 -15.646106 3.070254 -0.493852 12.212820 -21.531563 0.431702 -2.885506 -8.510624 0.000000 0.000000 0.000000 23.241112 -74.038240 23.867159 -40.387496 4.199442 -17.564996 16.982938 9.891703 0.600100 11.568892 7.799868 29.531293 9.226945 0.694753 -23.775608 0.000000 0.000000 0.000000 10.269616 -68.194753 13.524727 5.024268 0.658427 -6.725156 6.129897 -2.740535 -0.655368 0.115278 -0.102915 -0.015591 0.000000 0.000000 0.000000 4.939696 0.074298 0.022666 -10.769656 11.754150 -1.665464 -40.332168 56.761816 4.901019 0.000000 0.000000 0.000000 6.416754 -2.662094 -0.941944 7.531136 0.279870 12.119395 -0.432329 -6.518333 2.471708 -38.889089 0.332144 11.425160 15.634399 -11.570796 8.109068 0.000000 0.000000 0.000000 6.396374 -1.836084 0.167562 -3.524879 13.460216 -15.508385 4.802110 -2.083173 14.423778 -59.560998 44.970024 45.061398 -174.137777 49.946995 177.249256 0.000000 0.000000 0.000000 
3.189713 94.474228 -15.526340 0.000000 0.000000 0.000000 26.759988 -75.403444 27.312834 -30.261416 41.134449 33.041207 21.167286 -15.610088 3.073128 -0.495495 12.218465 -21.527609 0.471238 -2.887309 -8.523626 0.000000 0.000000 0.000000 23.143514 -74.002327 23.769624 -40.374426 4.165992 -17.583426 16.988309 9.901429 0.591949 11.519357 7.777552 29.569149 9.287982 0.693499 -23.791909 0.000000 0.000000 0.000000 10.191073 -68.180888 13.456260 5.048755 0.625763 -6.691067 6.135838 -2.747573 -0.657390 0.112471 -0.098525 -0.015358 0.000000 0.000000 0.000000 4.957458 0.063822 0.019781 -10.844669 11.774974 -1.710570 -40.455487 56.883970 5.142224 0.000000 0.000000 0.000000 6.434098 -2.674644 -0.945323 7.528823 0.298903 12.190682 -0.367132 -6.498837 2.485349 -38.955619 0.410492 11.368597 15.592040 -11.588290 8.076268 0.000000 0.000000 0.000000 6.425552 -1.842984 0.167644 -3.558810 13.375886 -15.615986 4.740071 -2.036282 14.456770 -59.667979 44.939090 45.065202 -174.107451 49.955672 177.202865 0.000000 0.000000 0.000000 
3.191564 94.478119 -15.506886 0.000000 0.000000 0.000000 26.616692 -75.393609 27.186839 -30.257830 41.086552 32.998761 21.197009 -15.579136 3.077633 -0.469449 12.209973 -21.541508 0.482538 -2.890378 -8.514080 0.000000 0.000000 0.000000 23.005838 -73.955608 23.639899 -40.342434 4.121524 -17.612191 16.990791 9.913340 0.580039 11.453052 7.735855 29.608935 9.377945 0.699340 -23.808125 0.000000 0.000000 0.000000 10.094816 -68.136751 13.362956 5.073604 0.571911 -6.641261 6.152986 -2.765135 -0.663135 0.113635 -0.094964 -0.011873 0.000000 0.000000 0.000000 4.990064 0.040729 0.012485 -10.961366 11.808091 -1.754985 -40.702952 57.072965 5.578899 0.000000 0.000000 0.000000 6.465379 -2.699376 -0.949309 7.518647 0.342253 12.292238 -0.305892 -6.490964 2.494867 -39.033852 0.602069 11.307732 15.472076 -11.697196 8.008016 0.000000 0.000000 0.000000 6.467430 -1.863455 0.163813 -3.601284 13.275573 -15.758828 4.703261 -1.922030 14.517045 -59.795110 44.866546 45.071814 -174.055118 49.978297 177.128266 0.000000 0.000000 0.000000 
3.189296 94.486076 -15.482426 0.000000 0.000000 0.000000 26.464579 -75.380440 27.053064 -30.247247 41.033926 32.947675 21.223582 -15.548342 3.084917 -0.434113 12.184502 -21.547956 0.454543 -2.896522 -8.477507 0.000000 0.000000 0.000000 22.844889 -73.908343 23.491232 -40.289790 4.071592 -17.652801 16.978694 9.937452 0.566575 11.391302 7.686968 29.669464 9.449640 0.717642 -23.820566 0.000000 0.000000 0.000000 9.994139 -68.077698 13.256893 5.095843 0.498651 -6.577867 6.177313 -2.795838 -0.667770 0.116634 -0.093544 -0.009519 0.000000 0.000000 0.000000 5.032063 0.004912 0.005969 -11.102852 11.853883 -1.783523 -41.004948 57.337635 6.143050 0.000000 0.000000 0.000000 6.511049 -2.738108 -0.948916 7.503955 0.406160 12.429681 -0.252317 -6.494040 2.492530 -39.118368 0.902889 11.241180 15.299250 -11.864306 7.917181 0.000000 0.000000 0.000000 6.516178 -1.897798 0.160755 -3.653629 13.168242 -15.914868 4.693108 -1.774255 14.562127 -59.914160 44.760982 45.070301 -173.985258 50.020819 177.033053 0.000000 0.000000 0.000000 
3.186328 94.498901 -15.459671 0.000000 0.000000 0.000000 26.303489 -75.360045 26.905990 -30.235178 40.983006 32.893979 21.251386 -15.516412 3.096865 -0.404663 12.140847 -21.533706 0.430484 -2.909098 -8.428350 0.000000 0.000000 0.000000 22.667021 -73.861843 23.325255 -40.211284 4.024412 -17.703145 16.946898 9.980788 0.550664 11.349073 7.638590 29.762276 9.478845 0.747822 -23.826394 0.000000 0.000000 0.000000 9.894983 -68.007763 13.143408 5.110819 0.410053 -6.503339 6.204959 -2.840712 -0.666804 0.119018 -0.090330 -0.008181 0.000000 0.000000 0.000000 5.075587 -0.045454 0.004597 -11.249145 11.912397 -1.785407 -41.297656 57.692238 6.774515 0.000000 0.000000 0.000000 6.569718 -2.792185 -0.939202 7.489483 0.484569 12.601744 -0.212832 -6.512021 2.482642 -39.195935 1.279701 11.152246 15.099125 -12.045890 7.816609 0.000000 0.000000 0.000000 6.567015 -1.946924 0.162848 -3.714554 13.064609 -16.066944 4.708063 -1.637444 14.593109 -60.012125 44.634538 45.058597 -173.902996 50.067745 176.923032 0.000000 0.000000 0.000000 
3.182860 94.517967 -15.440849 0.000000 0.000000 0.000000 26.096119 -75.322479 26.708714 -30.231599 40.935974 32.844887 21.279541 -15.481939 3.113190 -0.394393 12.078519 -21.495917 0.446540 -2.930498 -8.372512 0.000000 0.000000 0.000000 22.467948 -73.810467 23.133743 -40.100133 3.989481 -17.756779 16.892359 10.040311 0.531281 11.324198 7.584133 29.878622 9.481209 0.782613 -23.816631 0.000000 0.000000 0.000000 9.793164 -67.928116 13.022048 5.116382 0.310807 -6.419162 6.232443 -2.900470 -0.658144 0.118348 -0.085324 -0.007663 0.000000 0.000000 0.000000 5.113434 -0.110679 0.011587 -11.374923 11.987385 -1.755658 -41.524726 58.134677 7.412774 0.000000 0.000000 0.000000 6.639073 -2.862740 -0.918885 7.479277 0.571879 12.801005 -0.191009 -6.527611 2.473682 -39.254767 1.681408 11.028312 14.893497 -12.202538 7.719342 0.000000 0.000000 0.000000 6.616903 -2.009474 0.172916 -3.781536 12.971714 -16.205346 4.750416 -1.530242 14.590959 -60.099681 44.493741 45.044022 -173.808329 50.101610 176.795471 0.000000 0.000000 0.000000 
3.180206 94.539818 -15.419445 0.000000 0.000000 0.000000 25.834263 -75.263972 26.452976 -30.235663 40.887626 32.798432 21.305196 -15.449111 3.132388 -0.396524 11.994601 -21.446890 0.502015 -2.959503 -8.303021 0.000000 0.000000 0.000000 22.236712 -73.743401 22.906076 -39.956231 3.975351 -17.811231 16.818707 10.110613 0.508931 11.307218 7.511532 30.004218 9.483659 0.811882 -23.790430 0.000000 0.000000 0.000000 9.683747 -67.844733 12.895384 5.111565 0.206445 -6.327332 6.258087 -2.973516 -0.642056 0.114568 -0.079160 -0.009106 0.000000 0.000000 0.000000 5.138963 -0.190193 0.028258 -11.462544 12.077760 -1.694537 -41.641433 58.675751 8.013032 0.000000 0.000000 0.000000 6.716030 -2.949922 -0.889429 7.477076 0.661717 13.016661 -0.193287 -6.528603 2.465877 -39.301930 2.060074 10.864995 14.688805 -12.286281 7.629063 0.000000 0.000000 0.000000 6.667179 -2.085141 0.192213 -3.852022 12.895902 -16.324810 4.802982 -1.457541 14.546322 -60.178604 44.329277 45.026485 -173.697339 50.109130 176.645849 0.000000 0.000000 0.000000 
